<?xml version="1.0" encoding="utf-8"?>
<!-- Generator: Adobe Illustrator 16.0.0, SVG Export Plug-In . SVG Version: 6.00 Build 0)  -->
<!DOCTYPE svg PUBLIC "-//W3C//DTD SVG 1.1//EN" "http://www.w3.org/Graphics/SVG/1.1/DTD/svg11.dtd">
<svg version="1.1" id="Calque_1" xmlns="http://www.w3.org/2000/svg" xmlns:xlink="http://www.w3.org/1999/xlink" x="0px" y="0px"
	 width="280px" height="280px" viewBox="0 0 280 280" enable-background="new 0 0 280 280" xml:space="preserve">
<rect x="0.5" fill="#4BBCC7" width="280" height="280"/>
<g>
	<g>
		<g>
			<path fill="#FFFFFF" d="M137.246,155.443l11.696-11.723l-11.952-11.917l-11.679,11.687c-4.885-3.324-10.477-5.625-16.488-6.785
				v-16.564H91.944v16.572c-5.993,1.168-11.576,3.461-16.471,6.785l-11.713-11.687l-11.917,11.917l11.662,11.723
				c-3.282,4.859-5.601,10.441-6.769,16.486H40.173v16.871h16.564c1.168,5.992,3.486,11.577,6.769,16.486l-11.662,11.689
				l11.917,11.917l11.705-11.688c4.885,3.308,10.477,5.626,16.479,6.795v16.563h16.871v-16.58c6.01-1.169,11.585-3.479,16.487-6.795
				l11.679,11.671l11.951-11.91l-11.695-11.687c3.325-4.894,5.617-10.478,6.769-16.495h16.598v-16.854h-16.589
				C142.863,165.886,140.571,160.328,137.246,155.443z M100.393,198.767c-10.145,0-18.414-8.244-18.414-18.414
				c0-10.171,8.27-18.405,18.414-18.405c10.162,0,18.388,8.234,18.388,18.405S110.563,198.767,100.393,198.767z"/>
			<path fill="#FFFFFF" d="M234.804,171.495l0.119-0.086L152.829,88.88l-0.128-38.831l-39.726-10.622l-4.228,4.237l21.125,21.074
				l-20.58,20.622L88.185,64.27L83.94,68.48l10.656,39.684l37.782,0.128l-0.247,0.205l82.631,83.065l0.11-0.103
				c5.508,5.389,14.391,5.389,19.813-0.094C240.184,185.901,240.191,177.063,234.804,171.495z M229.468,186.124
				c-2.455,2.446-6.419,2.454-8.857,0c-2.43-2.446-2.454-6.385-0.025-8.841c2.464-2.438,6.428-2.438,8.883-0.008
				C231.896,179.704,231.924,183.66,229.468,186.124z"/>
		</g>
	</g>
</g>
</svg>
